<?xml version="1.0" encoding="UTF-8"?><svg id="Calque_2" xmlns="http://www.w3.org/2000/svg" viewBox="0 0 372.85 543.13"><g id="Calque_1-2"><path d="M184.58,0c8.51,1.31,17.15,2.02,25.5,4.01,55.21,13.16,92.23,46.93,112.14,99.85,.47,1.24,.88,2.49,1.61,4.57,3.16-4.91,5.98-9.31,8.82-13.69,3.82-5.88,8.73-7.53,13.27-4.48,4.32,2.9,4.82,7.99,1.25,13.65-4.41,6.99-8.89,13.95-13.51,21.18,7.87,5.05,15.27,9.78,22.65,14.54,3.45,2.23,5.34,5.65,3.8,9.36-1.06,2.57-3.67,5.19-6.22,6.21-1.95,.78-5.17-.41-7.34-1.61-5.34-2.96-10.39-6.42-15.72-9.79-2.2,74.9-24.16,144.33-54.68,212.43,2.9,0,5.31,0,7.73,0,13.64,0,27.29-.07,40.93,.04,6.38,.05,9.17,2.45,10.28,8.57,8.52,46.9,2.45,91.66-20.21,133.79-4.91,9.14-11.01,17.64-16.92,27.01h5.57c18.97,0,37.94-.02,56.9,.03,2.14,0,4.33,.17,6.4,.67,3.91,.95,5.86,3.97,6,7.67,.16,3.95-1.78,7.12-5.81,8.33-1.87,.56-3.91,.76-5.88,.77-116.47,.03-232.94,.04-349.41,.02-9.19,0-14.3-6.39-10.45-12.98,2.21-3.79,5.89-4.51,9.9-4.51,13.48,.02,26.95,0,40.43,0,1.82,0,3.64,0,6.57,0-1.38-1.93-2.25-3.19-3.16-4.41-21.41-28.82-33.6-61.18-37.24-96.85-1.95-19.16-1.19-38.18,2.13-57.13,1.57-8.98,3.75-10.99,12.79-11.01,13.48-.02,26.95,0,40.43,0,1.78,0,3.56,0,5.34,0-10.1-25.66-20.01-50.86-30.11-76.51-2.4,3.43-4.99,7.15-7.59,10.87-1.24,1.77-2.38,3.63-3.76,5.28-3.3,3.95-7.63,4.67-11.5,2.06-3.88-2.62-5.08-7.69-2.37-11.89,4.06-6.28,8.44-12.35,12.66-18.53,.92-1.35,1.79-2.73,2.79-4.27-7.49-5.2-14.72-10.22-21.96-15.23-3.39-2.35-5.16-5.83-3.57-9.47,1.1-2.52,3.83-5.03,6.41-5.96,2-.72,5.13,.55,7.31,1.76,3.87,2.16,7.4,4.93,11.71,7.89-2.49-11.81-5.05-22.75-7.09-33.78-4.32-23.4-7.99-46.91-5.48-70.83,2.66-25.42,11.25-48.72,25.57-69.9,1.09-1.61,2.15-3.25,3.79-5.74-6.53,0-12.25,.04-17.97-.01-6.14-.06-9.61-3.05-9.72-8.24-.11-5.41,3.51-8.7,9.79-8.74,8.47-.05,16.94-.01,26.13-.01,0-5.73,0-11.17,0-16.6,0-3.16-.05-6.33,.02-9.49,.15-6.39,3.33-9.98,8.67-9.87,5.17,.11,8.36,3.96,8.44,10.24,.06,4.82,.08,9.65,.13,14.47,0,.14,.12,.28,.39,.9,2.68-1.93,5.29-3.83,7.92-5.7C112.26,12.47,137.89,2.91,166.28,.92c1.46-.1,2.89-.6,4.33-.92,4.66,0,9.32,0,13.98,0Zm134.75,373.47h-6.04c-32.78,0-65.56,0-98.34,0-57.9,0-115.81,.03-173.71-.07-3.61,0-5.08,.73-5.63,4.74-2.64,19.29-2.27,38.47,1.12,57.61,5.71,32.31,18.92,61.03,40.62,85.78,2.64,3.01,5.35,4.19,9.39,4.18,57.24-.13,114.48-.09,171.72-.09,17.39,0,17.45,.04,27.71-13.86,30.42-41.22,40.1-87.44,33.16-138.3ZM138.74,178.59c6.73,6.54,13.26,12.67,19.52,19.05,3.62,3.68,3.54,8.77,.31,12.08-3.48,3.57-8.44,3.63-12.44-.12-2.62-2.45-4.95-5.2-8.34-8.8,0,3.83-.15,6.09,.03,8.32,.83,10.27,1.46,20.57,2.71,30.8,4.58,37.41,9.42,74.78,14.05,112.18,.42,3.36,2.11,3.9,5.01,3.88,12.31-.11,24.62-.03,36.93-.06,1.28,0,2.56-.26,4.07-.42,2.18-14.33,4.32-28.4,6.46-42.47-4.03,2.29-6.6,5.14-9.57,7.47-5.15,4.05-13,1.51-13.54-4.67-.25-2.86,1.22-6.59,3.18-8.79,5.71-6.41,12.05-12.24,18.77-18.91-2.71-2.36-4.94-4.12-6.96-6.09-4.4-4.3-8.79-8.63-13.01-13.11-2.79-2.96-3.25-6.51-1.21-10.11,2.07-3.67,5.51-4.95,9.36-3.9,2.09,.57,4.03,2.23,5.68,3.77,4.04,3.77,7.87,7.77,12.24,12.14,5.52-44.15,11.01-131.76,5.96-149.43-.15,.03-.36,0-.45,.09-3.56,3.49-7.11,7-10.67,10.5-4.9,4.82-10.22,5.41-13.96,1.55-3.65-3.77-3.07-8.81,1.67-13.53,5.86-5.84,11.8-11.6,18.42-18.1-3.82-3.49-7.17-6.46-10.4-9.55-3.24-3.11-6.47-6.24-9.51-9.55-3.47-3.77-3.4-8.74-.08-12.09,3.45-3.49,8.11-3.63,11.98,.04,1.99,1.88,3.42,4.36,5.1,6.57,.59-.5,1.17-1,1.76-1.49-4.71-18.27-9.72-36.42-22.2-51.42-.64-.76-1.37-1.45-2.1-2.13-6.55-6.06-12.75-6.14-19.39-.14-1.59,1.44-3.33,2.96-4.3,4.82-4.88,9.38-10.36,18.57-14.09,28.41-8.05,21.26-11.26,43.68-12.91,66.23-.84,11.49-.15,23.1-.15,35.77,1.71-2.02,3.11-3.8,4.64-5.45,1.58-1.71,3.21-3.39,4.96-4.92,4.51-3.94,10.5-3.36,13.33,1.41,2.46,4.14,1.5,7.99-1.81,11.29-6.11,6.1-12.27,12.16-19.07,18.88Zm97.5-76.11c3.82,3.6,7,6.52,10.09,9.53,3.1,3.02,6.18,6.06,9.16,9.19,3.86,4.07,4.09,8.94,.73,12.44-3.54,3.69-8.63,3.57-12.84-.38-2.1-1.97-4.09-4.04-7.01-6.95,2.57,46.47-1.99,91.2-5.86,136.96,2.97-2.76,4.99-4.94,7.32-6.72,3.67-2.82,7.47-2.52,10.91,.5,3.29,2.89,3.7,7.58,1,11.27-1.17,1.6-2.65,2.98-4.07,4.38-5.28,5.24-10.59,10.45-16.26,16.03,6.23,6.14,11.94,11.69,17.58,17.32,5.27,5.26,5.91,10.44,1.87,14.26-3.89,3.69-8.94,2.97-13.95-1.97-3.13-3.09-6.27-6.16-9.85-9.66-2.48,16.35-4.83,31.81-7.23,47.66,8.07,0,15.68-.91,22.98,.2,12.46,1.91,18.09-3.46,23.01-14.59,22.93-51.93,39.46-105.62,47.39-161.87,.95-6.71,1.1-13.52,1.63-20.29-2.12,1.18-3.01,2.58-4.1,3.8-3.49,3.89-8.78,4.09-12.38,.54-3.23-3.18-3.5-7.11-.58-11.8,4.56-7.3,9.23-14.52,14.03-22.05-7.89-5.06-15.51-9.77-22.94-14.77-4.36-2.93-5.25-7.76-2.67-11.78,2.54-3.96,7.37-5.08,11.84-2.6,2.56,1.42,5,3.08,7.78,4.81-8.03-35.4-64.4-85.25-93.99-83.33,11.23,18.61,16.73,39.2,21.97,60.76,3.98-3.4,7.22-7.35,10.76-11,4.83-4.99,9.56-5.41,13.47-1.53,3.78,3.74,3.31,8.81-1.39,13.51-5.87,5.87-11.83,11.66-18.4,18.12ZM98.01,45.01c3.59,0,7.21-.24,10.77,.06,4.32,.36,7.03,3.08,7.71,7.27,.7,4.32-1.51,7.49-5.4,9.1-1.74,.72-3.92,.51-5.9,.52-8.08,.05-16.16,.02-24.29,.02-.1,1.72-.2,2.71-.2,3.69-.02,7.66,.07,15.31-.04,22.97-.08,5.84-3.54,9.45-8.7,9.4-5.05-.04-8.14-3.37-8.38-9.12-.09-2.05-.01-4.11-.01-6.92-1.18,1.01-1.63,1.25-1.86,1.62-10.99,18.23-17.45,37.96-18.9,59.2-1.53,22.42,1.99,44.43,6.23,66.33,1.85,9.55,4.22,18.99,6.58,29.52,3.52-4.9,6.13-8.94,9.16-12.64,2.55-3.12,6-4.1,9.85-2.28,3.72,1.77,5.56,4.83,4.94,8.87-.29,1.87-1.4,3.71-2.48,5.33-4.69,7.01-9.51,13.94-14.39,21.06,4.05,2.78,7.75,5.3,11.43,7.85,3.69,2.56,7.46,5.01,11,7.76,4.04,3.13,4.85,8.17,2.2,11.92-2.71,3.83-7.53,4.69-11.92,2.06-1.74-1.04-3.38-2.22-6.13-4.04,8.3,24.63,17.41,47.36,28.74,69.17,.49,.95,1.96,1.97,2.98,1.99,12.1,.14,24.2,.09,35.4,.09-5.96-52.55-11.87-104.67-17.91-157.9-3.84,4.17-7.17,8.34-11.07,11.89-5.25,4.78-13.49,2.35-14.2-4.34-.3-2.79,1.39-6.5,3.38-8.71,5.74-6.36,12.09-12.16,18.42-18.4-6.21-6.12-11.91-11.7-17.57-17.34-5.44-5.42-6.09-10.23-2-14.21,4-3.9,8.83-3.18,14.24,2.33,2.51,2.56,4.77,5.36,7.14,8.06l1.29-.86c.94-46.38,4.76-92.16,27.66-134.77-18,4.34-33.73,11.82-47.76,23.43Z"/></g></svg>